<svg width="45" height="64" viewBox="0 0 45 64" fill="none" xmlns="http://www.w3.org/2000/svg">
<path d="M43.2241 0.167969L1.23593 0.167969C0.625172 0.167969 0.130981 0.662711 0.130981 1.27292L0.130981 43.3857C0.130981 48.4911 3.04778 53.1977 7.74272 55.6692L21.7154 63.0229C21.8762 63.1077 22.0532 63.1503 22.23 63.1503C22.4068 63.1503 22.5839 63.1077 22.7447 63.0229L36.7174 55.6692C41.4123 53.1977 44.3291 48.4914 44.3291 43.3857V1.27292C44.3291 0.662711 43.8349 0.167969 43.2241 0.167969ZM42.1192 43.3857C42.1192 47.6679 39.6546 51.6253 35.6881 53.714L22.23 60.797L8.77199 53.714C4.80548 51.6256 2.34089 47.6679 2.34089 43.3857L2.34089 2.37787L42.1192 2.37787V43.3857Z" fill="#1F2A37"/>
<path d="M5.65573 45.4714H14.3335C14.4349 46.5045 14.6194 47.5053 14.8882 48.4744C16.6718 54.9132 21.5298 57.4063 21.7358 57.5093C21.7521 57.5176 21.7709 57.5143 21.7878 57.5215C21.9292 57.5842 22.0781 57.6259 22.2303 57.6259C22.3825 57.6259 22.5311 57.5842 22.6728 57.5215C22.6894 57.5143 22.7082 57.5173 22.7248 57.5093C22.9308 57.4063 27.7888 54.9132 29.5724 48.4744C29.8412 47.5053 30.0257 46.5045 30.1271 45.4714H38.8043C39.4151 45.4714 39.9093 44.9767 39.9093 44.3664V7.903C39.9093 7.4892 39.6783 7.10992 39.3104 6.92042C38.9402 6.73009 38.498 6.76352 38.1623 7.00412C33.0293 10.6704 29.9647 16.6255 29.9647 22.9331V26.6872C29.9647 27.2974 30.4589 27.7922 31.0696 27.7922C32.2879 27.7922 33.2795 28.7833 33.2795 30.0021V33.3169C33.2795 34.5357 32.2879 35.5268 31.0696 35.5268H28.8512C27.7164 31.9871 25.8736 28.1921 23.335 24.1629V13.8825C24.0441 13.1311 25.5449 11.2778 25.5449 9.00796C25.5449 6.1069 23.0728 3.85915 22.967 3.76495C22.5482 3.38955 21.9118 3.38955 21.493 3.76495C21.3872 3.85943 18.9152 6.1069 18.9152 9.00796C18.9152 11.2778 20.416 13.1311 21.1251 13.8825V24.1569C18.584 28.1888 16.7442 31.9843 15.6089 35.5268H13.3904C12.1722 35.5268 11.1805 34.5357 11.1805 33.3169V30.0021C11.1805 28.7833 12.1722 27.7922 13.3904 27.7922C14.0012 27.7922 14.4954 27.2974 14.4954 26.6872V22.9331C14.4954 16.6255 11.4308 10.6701 6.29771 7.00412C5.96098 6.76352 5.51761 6.73009 5.14967 6.92042C4.78172 7.10992 4.55078 7.4892 4.55078 7.903L4.55078 44.3664C4.55078 44.9767 5.04497 45.4714 5.65573 45.4714ZM32.1746 25.722V22.9331C32.1746 18.0951 34.2063 13.4913 37.6994 10.2317V30.0021L35.4895 30.0021C35.4895 27.9466 34.0793 26.214 32.1746 25.722ZM31.0696 37.7367C33.5072 37.7367 35.4895 35.7539 35.4895 33.3169V32.212H37.6994V43.2615H30.2161C30.1912 41.5021 29.9442 39.6602 29.4757 37.7367H31.0696ZM17.003 47.8318C16.7959 47.07 16.6459 46.283 16.5553 45.4714H21.1251V54.3953C19.7676 53.2331 17.903 51.1279 17.003 47.8318ZM27.457 47.8318C26.557 51.1285 24.6913 53.2342 23.335 54.3958V45.4714H27.9048C27.8142 46.283 27.6642 47.07 27.457 47.8318ZM28.0084 43.2615H23.335V42.3723C23.335 40.0729 25.0184 38.1585 27.2175 37.7975C27.718 39.7151 27.9824 41.5372 28.0084 43.2615ZM22.23 6.24088C22.7435 6.91324 23.335 7.92427 23.335 9.00823C23.335 10.0927 22.7424 11.1032 22.23 11.7756C21.7165 11.1032 21.1251 10.0922 21.1251 9.00823C21.1251 7.92372 21.7176 6.91296 22.23 6.24088ZM22.23 26.6159C24.1477 29.8128 25.617 32.8418 26.5764 35.6694C24.7521 36.0484 23.2079 37.1677 22.23 38.6842C21.2519 37.1677 19.708 36.0484 17.8837 35.6694C18.8431 32.8415 20.3124 29.8128 22.23 26.6159ZM17.2425 37.7978C19.4417 38.1588 21.1251 40.0729 21.1251 42.3726V43.2618H16.4517C16.4776 41.5372 16.742 39.7151 17.2425 37.7978ZM13.3904 37.7367H14.9843C14.5161 39.6602 14.2688 41.5021 14.244 43.2615H6.76069V32.212H8.97059V33.3169C8.97059 35.7542 10.9529 37.7367 13.3904 37.7367ZM12.2854 22.9331V25.722C10.3808 26.214 8.97059 27.9466 8.97059 30.0021H6.76069L6.76069 10.2317C10.2537 13.4916 12.2854 18.0954 12.2854 22.9331Z" fill="#1F2A37"/>
</svg>
