<svg width="246" height="31" viewBox="0 0 246 31" fill="none" xmlns="http://www.w3.org/2000/svg">
<path d="M9.408 24.336C15.096 24.336 17.472 20.856 17.472 17.184V7.2H12.528V17.64C12.528 19.08 11.592 20.76 9.408 20.736C7.128 20.712 6.24 19.08 6.24 17.64V7.2H1.224V17.184C1.224 20.856 3.84 24.336 9.408 24.336ZM24.9431 24V16.104H25.1111L31.5191 24H37.0871L30.2231 15.6L37.0871 7.2H31.5191L25.1111 15.096H24.9431V7.2H19.9271V24H24.9431ZM43.4588 24V17.952H45.8828L49.1468 24H54.1628L50.6108 17.4C52.7468 16.68 53.9708 15.024 53.9708 12.576C53.9708 8.904 51.3548 7.2 46.8188 7.2H38.4428V24H43.4588ZM43.4588 10.8H46.5548C47.9948 10.8 48.9548 11.208 48.9548 12.576C48.9548 13.944 47.9948 14.352 46.5548 14.352H43.4588V10.8ZM58.9971 24L60.2691 21.072H67.8771L69.1491 24H74.1411L66.8931 7.2H61.2531L54.0051 24H58.9971ZM63.9891 11.976H64.1571L66.3171 17.472H61.8291L63.9891 11.976ZM80.1384 24V7.2H75.1224V24H80.1384ZM87.5916 24V14.16H87.7596L93.6636 24H99.1356V7.2H94.1436V17.064H93.9756L88.0716 7.2H82.5756V24H87.5916ZM115.983 24V20.4H106.575V17.4H115.143V13.8H106.575V10.8H115.983V7.2H101.583V24H115.983ZM123.24 24V18.192H131.784V14.592H123.24V10.8H132.624V7.2H118.224V24H123.24ZM139.435 24V17.952H141.859L145.123 24H150.139L146.587 17.4C148.723 16.68 149.947 15.024 149.947 12.576C149.947 8.904 147.331 7.2 142.795 7.2H134.419V24H139.435ZM139.435 10.8H142.531C143.971 10.8 144.931 11.208 144.931 12.576C144.931 13.944 143.971 14.352 142.531 14.352H139.435V10.8ZM166.351 24V20.4H156.943V17.4H165.511V13.8H156.943V10.8H166.351V7.2H151.951V24H166.351ZM182.991 24V20.4H173.583V17.4H182.151V13.8H173.583V10.8H182.991V7.2H168.591V24H182.991ZM194.208 24C198.72 24 201.96 20.52 201.96 15.6C201.96 10.68 198.72 7.2 194.208 7.2H185.232V24H194.208ZM190.248 10.8H192.96C195.624 10.8 196.944 12.696 196.944 15.6C196.944 18.504 195.624 20.4 192.96 20.4H190.248V10.8ZM212.062 24.336C218.854 24.336 221.23 19.656 221.23 15.744V15.504C221.23 11.592 218.854 6.864 212.062 6.864C205.366 6.864 202.774 11.592 202.774 15.504V15.744C202.774 19.656 205.366 24.336 212.062 24.336ZM212.062 20.736C208.702 20.712 207.79 17.88 207.79 15.744V15.504C207.79 13.368 208.702 10.488 212.062 10.464C215.326 10.44 216.31 13.368 216.31 15.504V15.744C216.31 17.88 215.326 20.76 212.062 20.736ZM227.882 23.976V12.36H228.05L231.41 23.976H236.21L239.57 12.36H239.714V23.976H244.466V7.176H237.362L233.906 19.152H233.738L230.258 7.176H223.154V23.976H227.882Z" fill="#1F2A37"/>
<rect y="28" width="117" height="3" fill="#FFC737"/>
<rect x="117" y="28" width="127" height="3" fill="#548EFF"/>
</svg>
