<svg width="776" height="162" viewBox="0 0 776 162" fill="none" xmlns="http://www.w3.org/2000/svg">
<path d="M33.3 71.4C22.9667 71.4 14.9 68.5667 9.1 62.9C3.3 57.2333 0.4 49.2 0.4 38.8V-4.76837e-06H20.2V38.2C20.2 44.2 21.3667 48.5 23.7 51.1C26.1 53.7 29.3667 55 33.5 55C37.6333 55 40.8667 53.7 43.2 51.1C45.5333 48.5 46.7 44.2 46.7 38.2V-4.76837e-06H66.2V38.8C66.2 49.2 63.3 57.2333 57.5 62.9C51.7 68.5667 43.6333 71.4 33.3 71.4ZM97.3133 54.5L96.2133 32.3L126.313 -4.76837e-06H148.113L118.113 32.5L107.113 44L97.3133 54.5ZM79.6133 70V-4.76837e-06H99.2133V70H79.6133ZM126.613 70L103.813 41.1L116.713 27.3L149.613 70H126.613ZM154.809 70V-4.76837e-06H186.809C193.209 -4.76837e-06 198.709 1.03333 203.309 3.1C207.975 5.16666 211.575 8.16666 214.109 12.1C216.642 15.9667 217.909 20.5667 217.909 25.9C217.909 31.1667 216.642 35.7333 214.109 39.6C211.575 43.4 207.975 46.3333 203.309 48.4C198.709 50.4 193.209 51.4 186.809 51.4H165.809L174.609 43.1V70H154.809ZM198.109 70L180.709 44.5H201.809L219.309 70H198.109ZM174.609 45.2L165.809 36.1H185.609C189.742 36.1 192.809 35.2 194.809 33.4C196.875 31.6 197.909 29.1 197.909 25.9C197.909 22.6333 196.875 20.1 194.809 18.3C192.809 16.5 189.742 15.6 185.609 15.6H165.809L174.609 6.49999V45.2ZM220.432 70L251.332 -4.76837e-06H270.832L301.832 70H281.232L257.032 9.7H264.832L240.632 70H220.432ZM237.332 56.4L242.432 41.8H276.632L281.732 56.4H237.332ZM307.445 70V-4.76837e-06H327.245V70H307.445ZM341.332 70V-4.76837e-06H357.632L396.232 46.6H388.532V-4.76837e-06H407.932V70H391.632L353.032 23.4H360.732V70H341.332ZM440.098 27.1H472.598V41.9H440.098V27.1ZM441.498 54.7H478.098V70H421.898V-4.76837e-06H476.798V15.3H441.498V54.7ZM543.256 160.9C540.056 160.9 537.356 159.833 535.156 157.7C532.956 155.567 531.856 152.867 531.856 149.6C531.856 146.2 532.956 143.5 535.156 141.5C537.356 139.433 540.056 138.4 543.256 138.4C546.456 138.4 549.156 139.433 551.356 141.5C553.556 143.5 554.656 146.2 554.656 149.6C554.656 152.867 553.556 155.567 551.356 157.7C549.156 159.833 546.456 160.9 543.256 160.9ZM559.202 160L590.102 90H609.602L640.602 160H620.002L595.802 99.7H603.602L579.402 160H559.202ZM576.102 146.4L581.202 131.8H615.402L620.502 146.4H576.102ZM646.215 160V90H678.215C684.615 90 690.115 91.0333 694.715 93.1C699.382 95.1667 702.982 98.1667 705.515 102.1C708.048 105.967 709.315 110.567 709.315 115.9C709.315 121.167 708.048 125.733 705.515 129.6C702.982 133.4 699.382 136.333 694.715 138.4C690.115 140.4 684.615 141.4 678.215 141.4H657.215L666.015 133.1V160H646.215ZM689.515 160L672.115 134.5H693.215L710.715 160H689.515ZM666.015 135.2L657.215 126.1H677.015C681.148 126.1 684.215 125.2 686.215 123.4C688.282 121.6 689.315 119.1 689.315 115.9C689.315 112.633 688.282 110.1 686.215 108.3C684.215 106.5 681.148 105.6 677.015 105.6H657.215L666.015 96.5V135.2ZM734.162 160V105.7H712.662V90H775.362V105.7H753.962V160H734.162Z" fill="#1F2A37"/>
<path d="M9.1 62.9L10.4977 61.4694L9.1 62.9ZM0.4 -4.76837e-06V-2H-1.6V-4.76837e-06H0.4ZM20.2 -4.76837e-06H22.2V-2H20.2V-4.76837e-06ZM23.7 51.1L22.2115 52.4358L22.2209 52.4463L22.2304 52.4566L23.7 51.1ZM43.2 51.1L41.7115 49.7642L43.2 51.1ZM46.7 -4.76837e-06V-2H44.7V-4.76837e-06H46.7ZM66.2 -4.76837e-06H68.2V-2H66.2V-4.76837e-06ZM57.5 62.9L56.1023 61.4694L57.5 62.9ZM33.3 69.4C23.3392 69.4 15.829 66.6782 10.4977 61.4694L7.70233 64.3306C13.971 70.4551 22.5942 73.4 33.3 73.4V69.4ZM10.4977 61.4694C5.18391 56.2778 2.4 48.8214 2.4 38.8H-1.6C-1.6 49.5786 1.41609 58.1888 7.70233 64.3306L10.4977 61.4694ZM2.4 38.8V-4.76837e-06H-1.6V38.8H2.4ZM0.4 2H20.2V-2H0.4V2ZM18.2 -4.76837e-06V38.2H22.2V-4.76837e-06H18.2ZM18.2 38.2C18.2 44.3681 19.3823 49.2832 22.2115 52.4358L25.1885 49.7642C23.3511 47.7168 22.2 44.0319 22.2 38.2H18.2ZM22.2304 52.4566C25.0734 55.5365 28.9111 57 33.5 57V53C29.8222 53 27.1266 51.8635 25.1696 49.7434L22.2304 52.4566ZM33.5 57C38.0875 57 41.9059 55.5364 44.6885 52.4358L41.7115 49.7642C39.8274 51.8636 37.1792 53 33.5 53V57ZM44.6885 52.4358C47.5177 49.2832 48.7 44.3681 48.7 38.2H44.7C44.7 44.0319 43.5489 47.7168 41.7115 49.7642L44.6885 52.4358ZM48.7 38.2V-4.76837e-06H44.7V38.2H48.7ZM46.7 2H66.2V-2H46.7V2ZM64.2 -4.76837e-06V38.8H68.2V-4.76837e-06H64.2ZM64.2 38.8C64.2 48.8214 61.4161 56.2778 56.1023 61.4694L58.8977 64.3306C65.1839 58.1888 68.2 49.5786 68.2 38.8H64.2ZM56.1023 61.4694C50.771 66.6782 43.2608 69.4 33.3 69.4V73.4C44.0059 73.4 52.629 70.4551 58.8977 64.3306L56.1023 61.4694ZM97.3133 54.5L95.3157 54.599L95.5497 59.3207L98.7754 55.8646L97.3133 54.5ZM96.2133 32.3L94.7501 30.9365L94.1739 31.5548L94.2157 32.399L96.2133 32.3ZM126.313 -4.76837e-06V-2H125.443L124.85 -1.36351L126.313 -4.76837e-06ZM148.113 -4.76837e-06L149.583 1.35656L152.681 -2H148.113V-4.76837e-06ZM118.113 32.5L119.559 33.8824L119.571 33.8696L119.583 33.8566L118.113 32.5ZM107.113 44L105.668 42.6176L105.66 42.6264L105.651 42.6354L107.113 44ZM79.6133 70H77.6133V72H79.6133V70ZM79.6133 -4.76837e-06V-2H77.6133V-4.76837e-06H79.6133ZM99.2133 -4.76837e-06H101.213V-2H99.2133V-4.76837e-06ZM99.2133 70V72H101.213V70H99.2133ZM126.613 70L125.043 71.2388L125.644 72H126.613V70ZM103.813 41.1L102.352 39.7342L101.179 40.9896L102.243 42.3388L103.813 41.1ZM116.713 27.3L118.298 26.0793L116.86 24.214L115.252 25.9342L116.713 27.3ZM149.613 70V72H153.679L151.198 68.7793L149.613 70ZM99.3108 54.401L98.2108 32.201L94.2157 32.399L95.3157 54.599L99.3108 54.401ZM97.6764 33.6635L127.776 1.3635L124.85 -1.36351L94.7501 30.9365L97.6764 33.6635ZM126.313 2H148.113V-2H126.313V2ZM146.644 -1.35657L116.644 31.1434L119.583 33.8566L149.583 1.35656L146.644 -1.35657ZM116.668 31.1176L105.668 42.6176L108.559 45.3824L119.559 33.8824L116.668 31.1176ZM105.651 42.6354L95.8512 53.1354L98.7754 55.8646L108.575 45.3646L105.651 42.6354ZM81.6133 70V-4.76837e-06H77.6133V70H81.6133ZM79.6133 2H99.2133V-2H79.6133V2ZM97.2133 -4.76837e-06V70H101.213V-4.76837e-06H97.2133ZM99.2133 68H79.6133V72H99.2133V68ZM128.183 68.7612L105.383 39.8612L102.243 42.3388L125.043 71.2388L128.183 68.7612ZM105.274 42.4658L118.174 28.6658L115.252 25.9342L102.352 39.7342L105.274 42.4658ZM115.129 28.5207L148.029 71.2207L151.198 68.7793L118.298 26.0793L115.129 28.5207ZM149.613 68H126.613V72H149.613V68ZM154.809 70H152.809V72H154.809V70ZM154.809 -4.76837e-06V-2H152.809V-4.76837e-06H154.809ZM203.309 3.1L202.489 4.92436L202.499 4.9287L203.309 3.1ZM214.109 12.1L212.427 13.183L212.431 13.1895L212.436 13.196L214.109 12.1ZM214.109 39.6L215.773 40.7094L215.777 40.7027L215.782 40.696L214.109 39.6ZM203.309 48.4L204.106 50.2342L204.118 50.2287L203.309 48.4ZM165.809 51.4L164.436 49.9451L160.773 53.4H165.809V51.4ZM174.609 43.1H176.609V38.4644L173.236 41.6451L174.609 43.1ZM174.609 70V72H176.609V70H174.609ZM198.109 70L196.457 71.1273L197.052 72H198.109V70ZM180.709 44.5V42.5H176.923L179.057 45.6273L180.709 44.5ZM201.809 44.5L203.458 43.3683L202.862 42.5H201.809V44.5ZM219.309 70V72H223.107L220.958 68.8683L219.309 70ZM174.609 45.2L173.171 46.5903L176.609 50.1452V45.2H174.609ZM165.809 36.1V34.1H161.092L164.371 37.4903L165.809 36.1ZM194.809 33.4L193.495 31.8918L193.483 31.9025L193.471 31.9134L194.809 33.4ZM194.809 18.3L193.471 19.7866L193.483 19.7975L193.495 19.8082L194.809 18.3ZM165.809 15.6L164.371 14.2097L161.092 17.6H165.809V15.6ZM174.609 6.49999H176.609V1.55477L173.171 5.10968L174.609 6.49999ZM156.809 70V-4.76837e-06H152.809V70H156.809ZM154.809 2H186.809V-2H154.809V2ZM186.809 2C192.999 2 198.206 3.00018 202.489 4.92433L204.128 1.27566C199.211 -0.933517 193.418 -2 186.809 -2V2ZM202.499 4.9287C206.842 6.8522 210.124 9.60776 212.427 13.183L215.79 11.017C213.026 6.72557 209.108 3.48113 204.118 1.2713L202.499 4.9287ZM212.436 13.196C214.724 16.6892 215.909 20.8947 215.909 25.9H219.909C219.909 20.2386 218.56 15.2441 215.782 11.0039L212.436 13.196ZM215.909 25.9C215.909 30.8331 214.727 35.0068 212.436 38.5039L215.782 40.696C218.557 36.4599 219.909 31.5002 219.909 25.9H215.909ZM212.445 38.4906C210.146 41.9383 206.86 44.6398 202.499 46.5713L204.118 50.2287C209.09 48.0269 213.005 44.8617 215.773 40.7094L212.445 38.4906ZM202.511 46.5659C198.222 48.4307 193.007 49.4 186.809 49.4V53.4C193.41 53.4 199.195 52.3693 204.106 50.2341L202.511 46.5659ZM186.809 49.4H165.809V53.4H186.809V49.4ZM167.181 52.8549L175.981 44.5549L173.236 41.6451L164.436 49.9451L167.181 52.8549ZM172.609 43.1V70H176.609V43.1H172.609ZM174.609 68H154.809V72H174.609V68ZM199.761 68.8727L182.361 43.3727L179.057 45.6273L196.457 71.1273L199.761 68.8727ZM180.709 46.5H201.809V42.5H180.709V46.5ZM200.16 45.6317L217.66 71.1317L220.958 68.8683L203.458 43.3683L200.16 45.6317ZM219.309 68H198.109V72H219.309V68ZM176.046 43.8097L167.246 34.7097L164.371 37.4903L173.171 46.5903L176.046 43.8097ZM165.809 38.1H185.609V34.1H165.809V38.1ZM185.609 38.1C189.981 38.1 193.626 37.1553 196.147 34.8866L193.471 31.9134C191.991 33.2447 189.503 34.1 185.609 34.1V38.1ZM196.122 34.9082C198.7 32.6633 199.909 29.5713 199.909 25.9H195.909C195.909 28.6287 195.051 30.5367 193.495 31.8918L196.122 34.9082ZM199.909 25.9C199.909 22.1768 198.709 19.0449 196.122 16.7918L193.495 19.8082C195.041 21.1551 195.909 23.0899 195.909 25.9H199.909ZM196.147 16.8134C193.626 14.5447 189.981 13.6 185.609 13.6V17.6C189.503 17.6 191.991 18.4553 193.471 19.7866L196.147 16.8134ZM185.609 13.6H165.809V17.6H185.609V13.6ZM167.246 16.9903L176.046 7.89031L173.171 5.10968L164.371 14.2097L167.246 16.9903ZM172.609 6.49999V45.2H176.609V6.49999H172.609ZM220.432 70L218.602 69.1923L217.363 72H220.432V70ZM251.332 -4.76837e-06V-2H250.029L249.502 -0.807672L251.332 -4.76837e-06ZM270.832 -4.76837e-06L272.661 -0.809857L272.134 -2H270.832V-4.76837e-06ZM301.832 70V72H304.905L303.661 69.1901L301.832 70ZM281.232 70L279.376 70.7449L279.88 72H281.232V70ZM257.032 9.7V7.7H254.074L255.176 10.4449L257.032 9.7ZM264.832 9.7L266.688 10.4449L267.79 7.7H264.832V9.7ZM240.632 70V72H241.984L242.488 70.7449L240.632 70ZM237.332 56.4L235.444 55.7404L234.515 58.4H237.332V56.4ZM242.432 41.8V39.8H241.012L240.544 41.1404L242.432 41.8ZM276.632 41.8L278.52 41.1404L278.052 39.8H276.632V41.8ZM281.732 56.4V58.4H284.549L283.62 55.7404L281.732 56.4ZM222.262 70.8077L253.162 0.807662L249.502 -0.807672L218.602 69.1923L222.262 70.8077ZM251.332 2H270.832V-2H251.332V2ZM269.003 0.809848L300.003 70.8099L303.661 69.1901L272.661 -0.809857L269.003 0.809848ZM301.832 68H281.232V72H301.832V68ZM283.088 69.2551L258.888 8.95509L255.176 10.4449L279.376 70.7449L283.088 69.2551ZM257.032 11.7H264.832V7.7H257.032V11.7ZM262.976 8.95509L238.776 69.2551L242.488 70.7449L266.688 10.4449L262.976 8.95509ZM240.632 68H220.432V72H240.632V68ZM239.22 57.0595L244.32 42.4595L240.544 41.1404L235.444 55.7404L239.22 57.0595ZM242.432 43.8H276.632V39.8H242.432V43.8ZM274.744 42.4595L279.844 57.0595L283.62 55.7404L278.52 41.1404L274.744 42.4595ZM281.732 54.4H237.332V58.4H281.732V54.4ZM307.445 70H305.445V72H307.445V70ZM307.445 -4.76837e-06V-2H305.445V-4.76837e-06H307.445ZM327.245 -4.76837e-06H329.245V-2H327.245V-4.76837e-06ZM327.245 70V72H329.245V70H327.245ZM309.445 70V-4.76837e-06H305.445V70H309.445ZM307.445 2H327.245V-2H307.445V2ZM325.245 -4.76837e-06V70H329.245V-4.76837e-06H325.245ZM327.245 68H307.445V72H327.245V68ZM341.332 70H339.332V72H341.332V70ZM341.332 -4.76837e-06V-2H339.332V-4.76837e-06H341.332ZM357.632 -4.76837e-06L359.172 -1.27582L358.572 -2H357.632V-4.76837e-06ZM396.232 46.6V48.6H400.486L397.772 45.3242L396.232 46.6ZM388.532 46.6H386.532V48.6H388.532V46.6ZM388.532 -4.76837e-06V-2H386.532V-4.76837e-06H388.532ZM407.932 -4.76837e-06H409.932V-2H407.932V-4.76837e-06ZM407.932 70V72H409.932V70H407.932ZM391.632 70L390.092 71.2758L390.692 72H391.632V70ZM353.032 23.4V21.4H348.778L351.492 24.6758L353.032 23.4ZM360.732 23.4H362.732V21.4H360.732V23.4ZM360.732 70V72H362.732V70H360.732ZM343.332 70V-4.76837e-06H339.332V70H343.332ZM341.332 2H357.632V-2H341.332V2ZM356.092 1.27581L394.692 47.8758L397.772 45.3242L359.172 -1.27582L356.092 1.27581ZM396.232 44.6H388.532V48.6H396.232V44.6ZM390.532 46.6V-4.76837e-06H386.532V46.6H390.532ZM388.532 2H407.932V-2H388.532V2ZM405.932 -4.76837e-06V70H409.932V-4.76837e-06H405.932ZM407.932 68H391.632V72H407.932V68ZM393.172 68.7242L354.572 22.1242L351.492 24.6758L390.092 71.2758L393.172 68.7242ZM353.032 25.4H360.732V21.4H353.032V25.4ZM358.732 23.4V70H362.732V23.4H358.732ZM360.732 68H341.332V72H360.732V68ZM440.098 27.1V25.1H438.098V27.1H440.098ZM472.598 27.1H474.598V25.1H472.598V27.1ZM472.598 41.9V43.9H474.598V41.9H472.598ZM440.098 41.9H438.098V43.9H440.098V41.9ZM441.498 54.7H439.498V56.7H441.498V54.7ZM478.098 54.7H480.098V52.7H478.098V54.7ZM478.098 70V72H480.098V70H478.098ZM421.898 70H419.898V72H421.898V70ZM421.898 -4.76837e-06V-2H419.898V-4.76837e-06H421.898ZM476.798 -4.76837e-06H478.798V-2H476.798V-4.76837e-06ZM476.798 15.3V17.3H478.798V15.3H476.798ZM441.498 15.3V13.3H439.498V15.3H441.498ZM440.098 29.1H472.598V25.1H440.098V29.1ZM470.598 27.1V41.9H474.598V27.1H470.598ZM472.598 39.9H440.098V43.9H472.598V39.9ZM442.098 41.9V27.1H438.098V41.9H442.098ZM441.498 56.7H478.098V52.7H441.498V56.7ZM476.098 54.7V70H480.098V54.7H476.098ZM478.098 68H421.898V72H478.098V68ZM423.898 70V-4.76837e-06H419.898V70H423.898ZM421.898 2H476.798V-2H421.898V2ZM474.798 -4.76837e-06V15.3H478.798V-4.76837e-06H474.798ZM476.798 13.3H441.498V17.3H476.798V13.3ZM439.498 15.3V54.7H443.498V15.3H439.498ZM19.4 120.7V118.7H17.4V120.7H19.4ZM51.7 120.7H53.7V118.7H51.7V120.7ZM51.7 136V138H53.7V136H51.7ZM19.4 136H17.4V138H19.4V136ZM20.8 160V162H22.8V160H20.8ZM1 160H-1V162H1V160ZM1 90V88H-1V90H1ZM55.9 90H57.9V88H55.9V90ZM55.9 105.3V107.3H57.9V105.3H55.9ZM20.8 105.3V103.3H18.8V105.3H20.8ZM19.4 122.7H51.7V118.7H19.4V122.7ZM49.7 120.7V136H53.7V120.7H49.7ZM51.7 134H19.4V138H51.7V134ZM21.4 136V120.7H17.4V136H21.4ZM20.8 158H1V162H20.8V158ZM3 160V90H-1V160H3ZM1 92H55.9V88H1V92ZM53.9 90V105.3H57.9V90H53.9ZM55.9 103.3H20.8V107.3H55.9V103.3ZM18.8 105.3V160H22.8V105.3H18.8ZM65.1602 160H63.1602V162H65.1602V160ZM65.1602 90V88H63.1602V90H65.1602ZM113.66 93.1L112.841 94.9244L112.85 94.9287L113.66 93.1ZM124.46 102.1L122.779 103.183L122.783 103.19L122.787 103.196L124.46 102.1ZM124.46 129.6L126.124 130.709L126.129 130.703L126.133 130.696L124.46 129.6ZM113.66 138.4L114.458 140.234L114.47 140.229L113.66 138.4ZM76.1602 141.4L74.7879 139.945L71.1248 143.4H76.1602V141.4ZM84.9602 133.1H86.9602V128.464L83.5879 131.645L84.9602 133.1ZM84.9602 160V162H86.9602V160H84.9602ZM108.46 160L106.808 161.127L107.404 162H108.46V160ZM91.0602 134.5V132.5H87.2742L89.4081 135.627L91.0602 134.5ZM112.16 134.5L113.809 133.368L113.213 132.5H112.16V134.5ZM129.66 160V162H133.458L131.309 158.868L129.66 160ZM84.9602 135.2L83.5224 136.59L86.9602 140.145V135.2H84.9602ZM76.1602 126.1V124.1H71.4439L74.7224 127.49L76.1602 126.1ZM105.16 123.4L103.847 121.892L103.834 121.903L103.822 121.913L105.16 123.4ZM105.16 108.3L103.822 109.787L103.834 109.797L103.847 109.808L105.16 108.3ZM76.1602 105.6L74.7224 104.21L71.4439 107.6H76.1602V105.6ZM84.9602 96.5H86.9602V91.5548L83.5224 95.1097L84.9602 96.5ZM67.1602 160V90H63.1602V160H67.1602ZM65.1602 92H97.1602V88H65.1602V92ZM97.1602 92C103.351 92 108.558 93.0002 112.841 94.9243L114.48 91.2757C109.563 89.0665 103.769 88 97.1602 88V92ZM112.85 94.9287C117.194 96.8522 120.476 99.6078 122.779 103.183L126.142 101.017C123.378 96.7256 119.46 93.4811 114.47 91.2713L112.85 94.9287ZM122.787 103.196C125.076 106.689 126.26 110.895 126.26 115.9H130.26C130.26 110.239 128.911 105.244 126.133 101.004L122.787 103.196ZM126.26 115.9C126.26 120.833 125.079 125.007 122.787 128.504L126.133 130.696C128.908 126.46 130.26 121.5 130.26 115.9H126.26ZM122.796 128.491C120.498 131.938 117.212 134.64 112.85 136.571L114.47 140.229C119.442 138.027 123.356 134.862 126.124 130.709L122.796 128.491ZM112.863 136.566C108.573 138.431 103.359 139.4 97.1602 139.4V143.4C103.762 143.4 109.547 142.369 114.458 140.234L112.863 136.566ZM97.1602 139.4H76.1602V143.4H97.1602V139.4ZM77.5324 142.855L86.3324 134.555L83.5879 131.645L74.7879 139.945L77.5324 142.855ZM82.9602 133.1V160H86.9602V133.1H82.9602ZM84.9602 158H65.1602V162H84.9602V158ZM110.112 158.873L92.7122 133.373L89.4081 135.627L106.808 161.127L110.112 158.873ZM91.0602 136.5H112.16V132.5H91.0602V136.5ZM110.511 135.632L128.011 161.132L131.309 158.868L113.809 133.368L110.511 135.632ZM129.66 158H108.46V162H129.66V158ZM86.3979 133.81L77.5979 124.71L74.7224 127.49L83.5224 136.59L86.3979 133.81ZM76.1602 128.1H95.9602V124.1H76.1602V128.1ZM95.9602 128.1C100.332 128.1 103.977 127.155 106.498 124.887L103.822 121.913C102.343 123.245 99.8547 124.1 95.9602 124.1V128.1ZM106.474 124.908C109.051 122.663 110.26 119.571 110.26 115.9H106.26C106.26 118.629 105.402 120.537 103.847 121.892L106.474 124.908ZM110.26 115.9C110.26 112.177 109.061 109.045 106.474 106.792L103.847 109.808C105.393 111.155 106.26 113.09 106.26 115.9H110.26ZM106.498 106.813C103.977 104.545 100.332 103.6 95.9602 103.6V107.6C99.8547 107.6 102.343 108.455 103.822 109.787L106.498 106.813ZM95.9602 103.6H76.1602V107.6H95.9602V103.6ZM77.5979 106.99L86.3979 97.8903L83.5224 95.1097L74.7224 104.21L77.5979 106.99ZM82.9602 96.5V135.2H86.9602V96.5H82.9602ZM157.384 117.1V115.1H155.384V117.1H157.384ZM189.884 117.1H191.884V115.1H189.884V117.1ZM189.884 131.9V133.9H191.884V131.9H189.884ZM157.384 131.9H155.384V133.9H157.384V131.9ZM158.784 144.7H156.784V146.7H158.784V144.7ZM195.384 144.7H197.384V142.7H195.384V144.7ZM195.384 160V162H197.384V160H195.384ZM139.184 160H137.184V162H139.184V160ZM139.184 90V88H137.184V90H139.184ZM194.084 90H196.084V88H194.084V90ZM194.084 105.3V107.3H196.084V105.3H194.084ZM158.784 105.3V103.3H156.784V105.3H158.784ZM157.384 119.1H189.884V115.1H157.384V119.1ZM187.884 117.1V131.9H191.884V117.1H187.884ZM189.884 129.9H157.384V133.9H189.884V129.9ZM159.384 131.9V117.1H155.384V131.9H159.384ZM158.784 146.7H195.384V142.7H158.784V146.7ZM193.384 144.7V160H197.384V144.7H193.384ZM195.384 158H139.184V162H195.384V158ZM141.184 160V90H137.184V160H141.184ZM139.184 92H194.084V88H139.184V92ZM192.084 90V105.3H196.084V90H192.084ZM194.084 103.3H158.784V107.3H194.084V103.3ZM156.784 105.3V144.7H160.784V105.3H156.784ZM224.571 117.1V115.1H222.571V117.1H224.571ZM257.071 117.1H259.071V115.1H257.071V117.1ZM257.071 131.9V133.9H259.071V131.9H257.071ZM224.571 131.9H222.571V133.9H224.571V131.9ZM225.971 144.7H223.971V146.7H225.971V144.7ZM262.571 144.7H264.571V142.7H262.571V144.7ZM262.571 160V162H264.571V160H262.571ZM206.371 160H204.371V162H206.371V160ZM206.371 90V88H204.371V90H206.371ZM261.271 90H263.271V88H261.271V90ZM261.271 105.3V107.3H263.271V105.3H261.271ZM225.971 105.3V103.3H223.971V105.3H225.971ZM224.571 119.1H257.071V115.1H224.571V119.1ZM255.071 117.1V131.9H259.071V117.1H255.071ZM257.071 129.9H224.571V133.9H257.071V129.9ZM226.571 131.9V117.1H222.571V131.9H226.571ZM225.971 146.7H262.571V142.7H225.971V146.7ZM260.571 144.7V160H264.571V144.7H260.571ZM262.571 158H206.371V162H262.571V158ZM208.371 160V90H204.371V160H208.371ZM206.371 92H261.271V88H206.371V92ZM259.271 90V105.3H263.271V90H259.271ZM261.271 103.3H225.971V107.3H261.271V103.3ZM223.971 105.3V144.7H227.971V105.3H223.971ZM273.559 160H271.559V162H273.559V160ZM273.559 90V88H271.559V90H273.559ZM327.059 94.3L326.181 96.0969L327.059 94.3ZM340.759 106.4L339.065 107.464L339.07 107.472L339.075 107.479L340.759 106.4ZM340.759 143.6L339.069 142.53L339.065 142.536L340.759 143.6ZM327.059 155.7L326.181 153.903L327.059 155.7ZM293.359 144.2H291.359V146.2H293.359V144.2ZM316.259 142L317.153 143.789L317.161 143.785L317.169 143.781L316.259 142ZM323.259 135.4L324.988 136.405L324.993 136.397L324.997 136.388L323.259 135.4ZM323.259 114.6L324.988 113.595L323.259 114.6ZM316.259 108.1L315.332 109.872L315.356 109.885L315.38 109.897L316.259 108.1ZM293.359 105.8V103.8H291.359V105.8H293.359ZM275.559 160V90H271.559V160H275.559ZM273.559 92H306.659V88H273.559V92ZM306.659 92C314.143 92 320.633 93.3863 326.181 96.0969L327.937 92.5031C321.751 89.4803 314.641 88 306.659 88V92ZM326.181 96.0969C331.734 98.8108 336.009 102.6 339.065 107.464L342.452 105.336C338.975 99.8003 334.116 95.5225 327.937 92.5031L326.181 96.0969ZM339.075 107.479C342.169 112.307 343.759 118.118 343.759 125H347.759C347.759 117.482 346.014 110.893 342.442 105.321L339.075 107.479ZM343.759 125C343.759 131.811 342.171 137.628 339.069 142.53L342.449 144.67C346.012 139.039 347.759 132.456 347.759 125H343.759ZM339.065 142.536C336.009 147.4 331.734 151.189 326.181 153.903L327.937 157.497C334.116 154.477 338.975 150.2 342.452 144.664L339.065 142.536ZM326.181 153.903C320.633 156.614 314.143 158 306.659 158V162C314.641 162 321.751 160.52 327.937 157.497L326.181 153.903ZM306.659 158H273.559V162H306.659V158ZM293.359 146.2H305.859V142.2H293.359V146.2ZM305.859 146.2C310.102 146.2 313.888 145.422 317.153 143.789L315.364 140.211C312.763 141.512 309.615 142.2 305.859 142.2V146.2ZM317.169 143.781C320.505 142.076 323.125 139.609 324.988 136.405L321.53 134.395C320.059 136.924 318.013 138.857 315.348 140.219L317.169 143.781ZM324.997 136.388C326.865 133.102 327.759 129.282 327.759 125H323.759C323.759 128.718 322.986 131.831 321.52 134.412L324.997 136.388ZM327.759 125C327.759 120.66 326.868 116.829 324.988 113.595L321.53 115.605C322.983 118.105 323.759 121.207 323.759 125H327.759ZM324.988 113.595C323.121 110.383 320.49 107.942 317.137 106.303L315.38 109.897C318.027 111.191 320.063 113.083 321.53 115.605L324.988 113.595ZM317.185 106.328C313.912 104.617 310.115 103.8 305.859 103.8V107.8C309.603 107.8 312.738 108.517 315.332 109.872L317.185 106.328ZM305.859 103.8H293.359V107.8H305.859V103.8ZM291.359 105.8V144.2H295.359V105.8H291.359ZM375.976 158.7L375.265 160.569L375.976 158.7ZM363.576 151.1L362.19 152.542L362.204 152.555L362.218 152.569L363.576 151.1ZM355.476 139.5L353.645 140.305L355.476 139.5ZM355.476 110.5L353.645 109.695L355.476 110.5ZM363.576 99L364.947 100.456L364.948 100.455L363.576 99ZM375.976 91.3L375.265 89.4306L375.976 91.3ZM406.976 91.3L406.256 93.166L406.265 93.1694L406.976 91.3ZM419.276 99L417.89 100.442L417.897 100.449L417.904 100.456L419.276 99ZM427.376 110.5L425.545 111.305L425.55 111.316L425.555 111.328L427.376 110.5ZM427.376 139.6L425.55 138.783L425.545 138.795L427.376 139.6ZM419.276 151.1L420.647 152.556L419.276 151.1ZM406.976 158.7L406.265 156.831L406.256 156.834L406.976 158.7ZM398.876 143.6L398.133 141.743L398.124 141.747L398.114 141.751L398.876 143.6ZM404.876 139.6L403.435 138.213L403.434 138.214L404.876 139.6ZM408.876 133.2L407.022 132.449L407.013 132.47L407.005 132.492L408.876 133.2ZM408.876 116.8L407.005 117.508L407.017 117.539L407.03 117.569L408.876 116.8ZM404.876 110.5L403.408 111.859L403.434 111.887L403.462 111.914L404.876 110.5ZM398.876 106.4L398.114 108.249L398.124 108.253L398.133 108.257L398.876 106.4ZM383.976 106.4L383.233 104.543L383.224 104.547L383.214 104.551L383.976 106.4ZM377.976 110.5L376.535 109.113L376.534 109.114L377.976 110.5ZM373.976 116.8L372.122 116.049L372.117 116.062L372.112 116.075L373.976 116.8ZM373.976 133.2L372.105 133.908L372.113 133.93L372.122 133.951L373.976 133.2ZM377.976 139.6L376.508 140.959L376.534 140.987L376.562 141.014L377.976 139.6ZM383.976 143.6L383.214 145.449L383.224 145.453L383.233 145.457L383.976 143.6ZM391.476 159.4C386.093 159.4 381.17 158.536 376.687 156.831L375.265 160.569C380.248 162.464 385.659 163.4 391.476 163.4V159.4ZM376.687 156.831C372.18 155.117 368.269 152.715 364.934 149.631L362.218 152.569C365.949 156.018 370.305 158.683 375.265 160.569L376.687 156.831ZM364.962 149.658C361.684 146.506 359.135 142.856 357.307 138.695L353.645 140.305C355.683 144.944 358.535 149.027 362.19 152.542L364.962 149.658ZM357.307 138.695C355.495 134.572 354.576 130.016 354.576 125H350.576C350.576 130.517 351.59 135.628 353.645 140.305L357.307 138.695ZM354.576 125C354.576 119.984 355.495 115.428 357.307 111.305L353.645 109.695C351.59 114.372 350.576 119.483 350.576 125H354.576ZM357.307 111.305C359.133 107.148 361.678 103.537 364.947 100.456L362.204 97.5444C358.54 100.997 355.685 105.052 353.645 109.695L357.307 111.305ZM364.948 100.455C368.282 97.3094 372.188 94.88 376.687 93.1694L375.265 89.4306C370.297 91.32 365.936 94.0239 362.203 97.5452L364.948 100.455ZM376.687 93.1694C381.17 91.4644 386.093 90.6 391.476 90.6V86.6C385.659 86.6 380.248 87.5356 375.265 89.4306L376.687 93.1694ZM391.476 90.6C396.929 90.6 401.847 91.4655 406.256 93.166L407.696 89.434C402.771 87.5344 397.356 86.6 391.476 86.6V90.6ZM406.265 93.1694C410.76 94.8789 414.627 97.3047 417.89 100.442L420.662 97.5583C416.991 94.0286 412.658 91.3211 407.687 89.4306L406.265 93.1694ZM417.904 100.456C421.174 103.537 423.718 107.148 425.545 111.305L429.207 109.695C427.167 105.052 424.311 100.997 420.647 97.5444L417.904 100.456ZM425.555 111.328C427.427 115.445 428.376 119.993 428.376 125H432.376C432.376 119.474 431.325 114.355 429.197 109.672L425.555 111.328ZM428.376 125C428.376 130.007 427.427 134.592 425.55 138.783L429.201 140.417C431.325 135.674 432.376 130.527 432.376 125H428.376ZM425.545 138.795C423.718 142.952 421.174 146.563 417.904 149.644L420.647 152.556C424.311 149.103 427.167 145.048 429.207 140.405L425.545 138.795ZM417.904 149.644C414.64 152.72 410.769 155.118 406.265 156.831L407.687 160.569C412.65 158.682 416.978 156.013 420.647 152.556L417.904 149.644ZM406.256 156.834C401.847 158.534 396.929 159.4 391.476 159.4V163.4C397.356 163.4 402.771 162.466 407.696 160.566L406.256 156.834ZM391.476 147C394.381 147 397.109 146.491 399.637 145.449L398.114 141.751C396.11 142.576 393.904 143 391.476 143V147ZM399.619 145.457C402.203 144.423 404.445 142.934 406.317 140.986L403.434 138.214C401.973 139.733 400.215 140.91 398.133 141.743L399.619 145.457ZM406.316 140.987C408.248 138.982 409.723 136.613 410.746 133.908L407.005 132.492C406.162 134.72 404.97 136.618 403.435 138.213L406.316 140.987ZM410.729 133.951C411.838 131.218 412.376 128.225 412.376 125H408.376C408.376 127.775 407.914 130.249 407.022 132.449L410.729 133.951ZM412.376 125C412.376 121.716 411.84 118.714 410.722 116.031L407.03 117.569C407.912 119.686 408.376 122.151 408.376 125H412.376ZM410.746 116.092C409.72 113.381 408.239 111.034 406.29 109.086L403.462 111.914C404.98 113.432 406.164 115.286 407.005 117.508L410.746 116.092ZM406.343 109.141C404.47 107.118 402.22 105.584 399.619 104.543L398.133 108.257C400.198 109.083 401.948 110.282 403.408 111.859L406.343 109.141ZM399.637 104.551C397.109 103.509 394.381 103 391.476 103V107C393.904 107 396.11 107.424 398.114 108.249L399.637 104.551ZM391.476 103C388.57 103 385.817 103.51 383.233 104.543L384.719 108.257C386.801 107.424 389.048 107 391.476 107V103ZM383.214 104.551C380.687 105.591 378.457 107.117 376.535 109.113L379.416 111.887C380.962 110.283 382.732 109.075 384.737 108.249L383.214 104.551ZM376.534 109.114C374.673 111.049 373.208 113.371 372.122 116.049L375.829 117.551C376.744 115.295 377.945 113.417 379.417 111.886L376.534 109.114ZM372.112 116.075C371.073 118.746 370.576 121.732 370.576 125H374.576C374.576 122.135 375.012 119.654 375.84 117.525L372.112 116.075ZM370.576 125C370.576 128.209 371.075 131.186 372.105 133.908L375.846 132.492C375.01 130.281 374.576 127.791 374.576 125H370.576ZM372.122 133.951C373.205 136.623 374.664 138.967 376.508 140.959L379.443 138.241C377.954 136.633 376.746 134.71 375.829 132.449L372.122 133.951ZM376.562 141.014C378.482 142.934 380.703 144.415 383.214 145.449L384.737 141.751C382.715 140.918 380.937 139.732 379.39 138.186L376.562 141.014ZM383.233 145.457C385.817 146.49 388.57 147 391.476 147V143C389.048 143 386.801 142.576 384.719 141.743L383.233 145.457ZM440.746 160H438.746V162H440.746V160ZM440.746 90V88H438.746V90H440.746ZM457.046 90L458.754 88.9594L458.17 88H457.046V90ZM486.046 137.6V139.6H489.607L487.754 136.559L486.046 137.6ZM477.446 137.6L475.725 136.581L473.937 139.6H477.446V137.6ZM505.646 90V88H504.506L503.925 88.9806L505.646 90ZM521.946 90L523.946 89.9943L523.94 88H521.946V90ZM522.146 160V162H524.152L524.146 159.994L522.146 160ZM503.946 160L501.946 160.009L501.956 162H503.946V160ZM503.746 117.7V115.7H501.737L501.746 117.709L503.746 117.7ZM506.846 117.7L508.564 118.724L510.367 115.7H506.846V117.7ZM485.746 153.1V155.1H486.882L487.464 154.124L485.746 153.1ZM476.946 153.1L475.241 154.145L475.826 155.1H476.946V153.1ZM455.246 117.7V115.7H451.674L453.541 118.745L455.246 117.7ZM459.046 117.7H461.046V115.7H459.046V117.7ZM459.046 160V162H461.046V160H459.046ZM442.746 160V90H438.746V160H442.746ZM440.746 92H457.046V88H440.746V92ZM455.338 91.0406L484.338 138.641L487.754 136.559L458.754 88.9594L455.338 91.0406ZM486.046 135.6H477.446V139.6H486.046V135.6ZM479.167 138.619L507.367 91.0194L503.925 88.9806L475.725 136.581L479.167 138.619ZM505.646 92H521.946V88H505.646V92ZM519.946 90.0057L520.146 160.006L524.146 159.994L523.946 89.9943L519.946 90.0057ZM522.146 158H503.946V162H522.146V158ZM505.946 159.991L505.746 117.691L501.746 117.709L501.946 160.009L505.946 159.991ZM503.746 119.7H506.846V115.7H503.746V119.7ZM505.128 116.676L484.028 152.076L487.464 154.124L508.564 118.724L505.128 116.676ZM485.746 151.1H476.946V155.1H485.746V151.1ZM478.651 152.055L456.951 116.655L453.541 118.745L475.241 154.145L478.651 152.055ZM455.246 119.7H459.046V115.7H455.246V119.7ZM457.046 117.7V160H461.046V117.7H457.046ZM459.046 158H440.746V162H459.046V158ZM535.156 157.7L536.549 156.264L535.156 157.7ZM535.156 141.5L536.502 142.98L536.514 142.969L536.526 142.958L535.156 141.5ZM551.356 141.5L549.987 142.958L549.999 142.969L550.011 142.98L551.356 141.5ZM551.356 157.7L549.964 156.264L551.356 157.7ZM543.256 158.9C540.551 158.9 538.357 158.018 536.549 156.264L533.764 159.136C536.355 161.648 539.562 162.9 543.256 162.9V158.9ZM536.549 156.264C534.765 154.534 533.856 152.365 533.856 149.6H529.856C529.856 153.368 531.148 156.599 533.764 159.136L536.549 156.264ZM533.856 149.6C533.856 146.674 534.78 144.545 536.502 142.98L533.811 140.02C531.132 142.455 529.856 145.726 529.856 149.6H533.856ZM536.526 142.958C538.331 141.262 540.531 140.4 543.256 140.4V136.4C539.581 136.4 536.382 137.605 533.787 140.042L536.526 142.958ZM543.256 140.4C545.981 140.4 548.182 141.262 549.987 142.958L552.726 140.042C550.131 137.605 546.931 136.4 543.256 136.4V140.4ZM550.011 142.98C551.732 144.545 552.656 146.674 552.656 149.6H556.656C556.656 145.726 555.38 142.455 552.702 140.02L550.011 142.98ZM552.656 149.6C552.656 152.365 551.748 154.534 549.964 156.264L552.749 159.136C555.365 156.599 556.656 153.368 556.656 149.6H552.656ZM549.964 156.264C548.155 158.018 545.962 158.9 543.256 158.9V162.9C546.951 162.9 550.157 161.648 552.749 159.136L549.964 156.264ZM559.202 160L557.372 159.192L556.133 162H559.202V160ZM590.102 90V88H588.798L588.272 89.1923L590.102 90ZM609.602 90L611.43 89.1901L610.903 88H609.602V90ZM640.602 160V162H643.675L642.43 159.19L640.602 160ZM620.002 160L618.145 160.745L618.649 162H620.002V160ZM595.802 99.7V97.7H592.844L593.945 100.445L595.802 99.7ZM603.602 99.7L605.458 100.445L606.559 97.7H603.602V99.7ZM579.402 160V162H580.754L581.258 160.745L579.402 160ZM576.102 146.4L574.213 145.74L573.284 148.4H576.102V146.4ZM581.202 131.8V129.8H579.782L579.313 131.14L581.202 131.8ZM615.402 131.8L617.29 131.14L616.821 129.8H615.402V131.8ZM620.502 146.4V148.4H623.319L622.39 145.74L620.502 146.4ZM561.031 160.808L591.931 90.8077L588.272 89.1923L557.372 159.192L561.031 160.808ZM590.102 92H609.602V88H590.102V92ZM607.773 90.8098L638.773 160.81L642.43 159.19L611.43 89.1901L607.773 90.8098ZM640.602 158H620.002V162H640.602V158ZM621.858 159.255L597.658 98.9551L593.945 100.445L618.145 160.745L621.858 159.255ZM595.802 101.7H603.602V97.7H595.802V101.7ZM601.745 98.9551L577.545 159.255L581.258 160.745L605.458 100.445L601.745 98.9551ZM579.402 158H559.202V162H579.402V158ZM577.99 147.06L583.09 132.46L579.313 131.14L574.213 145.74L577.99 147.06ZM581.202 133.8H615.402V129.8H581.202V133.8ZM613.513 132.46L618.613 147.06L622.39 145.74L617.29 131.14L613.513 132.46ZM620.502 144.4H576.102V148.4H620.502V144.4ZM646.215 160H644.215V162H646.215V160ZM646.215 90V88H644.215V90H646.215ZM694.715 93.1L693.895 94.9244L693.905 94.9287L694.715 93.1ZM705.515 102.1L703.833 103.183L703.838 103.19L703.842 103.196L705.515 102.1ZM705.515 129.6L707.179 130.709L707.183 130.703L707.188 130.696L705.515 129.6ZM694.715 138.4L695.512 140.234L695.525 140.229L694.715 138.4ZM657.215 141.4L655.843 139.945L652.18 143.4H657.215V141.4ZM666.015 133.1H668.015V128.464L664.643 131.645L666.015 133.1ZM666.015 160V162H668.015V160H666.015ZM689.515 160L687.863 161.127L688.458 162H689.515V160ZM672.115 134.5V132.5H668.329L670.463 135.627L672.115 134.5ZM693.215 134.5L694.864 133.368L694.268 132.5H693.215V134.5ZM710.715 160V162H714.513L712.364 158.868L710.715 160ZM666.015 135.2L664.577 136.59L668.015 140.145V135.2H666.015ZM657.215 126.1V124.1H652.499L655.777 127.49L657.215 126.1ZM686.215 123.4L684.901 121.892L684.889 121.903L684.877 121.913L686.215 123.4ZM686.215 108.3L684.877 109.787L684.889 109.797L684.901 109.808L686.215 108.3ZM657.215 105.6L655.777 104.21L652.499 107.6H657.215V105.6ZM666.015 96.5H668.015V91.5548L664.577 95.1097L666.015 96.5ZM648.215 160V90H644.215V160H648.215ZM646.215 92H678.215V88H646.215V92ZM678.215 92C684.406 92 689.612 93.0002 693.895 94.9243L695.534 91.2757C690.617 89.0665 684.824 88 678.215 88V92ZM693.905 94.9287C698.248 96.8522 701.531 99.6078 703.833 103.183L707.196 101.017C704.432 96.7256 700.515 93.4811 695.525 91.2713L693.905 94.9287ZM703.842 103.196C706.131 106.689 707.315 110.895 707.315 115.9H711.315C711.315 110.239 709.966 105.244 707.188 101.004L703.842 103.196ZM707.315 115.9C707.315 120.833 706.133 125.007 703.842 128.504L707.188 130.696C709.963 126.46 711.315 121.5 711.315 115.9H707.315ZM703.851 128.491C701.552 131.938 698.266 134.64 693.905 136.571L695.525 140.229C700.497 138.027 704.411 134.862 707.179 130.709L703.851 128.491ZM693.917 136.566C689.628 138.431 684.413 139.4 678.215 139.4V143.4C684.816 143.4 690.602 142.369 695.512 140.234L693.917 136.566ZM678.215 139.4H657.215V143.4H678.215V139.4ZM658.587 142.855L667.387 134.555L664.643 131.645L655.843 139.945L658.587 142.855ZM664.015 133.1V160H668.015V133.1H664.015ZM666.015 158H646.215V162H666.015V158ZM691.167 158.873L673.767 133.373L670.463 135.627L687.863 161.127L691.167 158.873ZM672.115 136.5H693.215V132.5H672.115V136.5ZM691.566 135.632L709.066 161.132L712.364 158.868L694.864 133.368L691.566 135.632ZM710.715 158H689.515V162H710.715V158ZM667.453 133.81L658.653 124.71L655.777 127.49L664.577 136.59L667.453 133.81ZM657.215 128.1H677.015V124.1H657.215V128.1ZM677.015 128.1C681.387 128.1 685.032 127.155 687.553 124.887L684.877 121.913C683.398 123.245 680.909 124.1 677.015 124.1V128.1ZM687.528 124.908C690.106 122.663 691.315 119.571 691.315 115.9H687.315C687.315 118.629 686.457 120.537 684.901 121.892L687.528 124.908ZM691.315 115.9C691.315 112.177 690.115 109.045 687.528 106.792L684.901 109.808C686.448 111.155 687.315 113.09 687.315 115.9H691.315ZM687.553 106.813C685.032 104.545 681.387 103.6 677.015 103.6V107.6C680.909 107.6 683.398 108.455 684.877 109.787L687.553 106.813ZM677.015 103.6H657.215V107.6H677.015V103.6ZM658.653 106.99L667.453 97.8903L664.577 95.1097L655.777 104.21L658.653 106.99ZM664.015 96.5V135.2H668.015V96.5H664.015ZM734.162 160H732.162V162H734.162V160ZM734.162 105.7H736.162V103.7H734.162V105.7ZM712.662 105.7H710.662V107.7H712.662V105.7ZM712.662 90V88H710.662V90H712.662ZM775.362 90H777.362V88H775.362V90ZM775.362 105.7V107.7H777.362V105.7H775.362ZM753.962 105.7V103.7H751.962V105.7H753.962ZM753.962 160V162H755.962V160H753.962ZM736.162 160V105.7H732.162V160H736.162ZM734.162 103.7H712.662V107.7H734.162V103.7ZM714.662 105.7V90H710.662V105.7H714.662ZM712.662 92H775.362V88H712.662V92ZM773.362 90V105.7H777.362V90H773.362ZM775.362 103.7H753.962V107.7H775.362V103.7ZM751.962 105.7V160H755.962V105.7H751.962ZM753.962 158H734.162V162H753.962V158Z" fill="#1F2A37"/>
</svg>
